<svg xmlns="http://www.w3.org/2000/svg" width="121.322" height="39.287">
	<style>svg { fill: gray; }</style>
	<path id="develop-block__logo__svg"
	      d="M119.854 13.689c-1.511-2.947-4.408-5.154-7.687-5.717-2.581-.507-5.224.178-7.604 1.166.083-3.045-.023-6.096.059-9.139-1.443.262-2.82.966-3.735 2.133-1.394 1.775-1.824 4.098-1.835 6.303-.009 7.705 0 15.41-.005 23.113 3.747 0 7.494.01 11.238-.006 2.442-.018 4.938-.67 6.901-2.156 1.981-1.475 3.267-3.754 3.773-6.148.681-3.183.45-6.645-1.105-9.549zm-4.117 8.198c-.379 1.914-1.415 3.828-3.188 4.773-.747.42-1.61.521-2.453.502-1.832.006-3.669-.021-5.504.01-.015-4.818.044-9.643-.029-14.46 1.842.05 3.685-.007 5.525.025 1.752.046 3.403 1.021 4.403 2.441 1.395 1.908 1.661 4.431 1.246 6.709zm-57.935-16.936c-.619 1.462-.73 3.068-.73 4.636.002 7.321 0 21.962 0 21.962h5.884s-.021-20.611 0-30.913c-2.3.463-4.33 2.104-5.154 4.315zm-42.773 3.344c.009 6.287-.004 12.576 0 18.867-1.279-.021-2.559.025-3.834-.025-1.582-.07-3.091-.926-4.006-2.209-1.017-1.418-1.359-3.201-1.359-4.919 0-3.905-.012-7.807 0-11.714h-5.826s-.015 8.193.018 12.285c.049 2.9.766 5.984 2.861 8.113 2.055 2.082 5.082 2.801 7.919 2.844 3.354.031 6.706.006 10.055.012.003-7.752 0-23.254 0-23.254h-5.828zm28.995.801c-1.584-.619-3.294-.826-4.983-.801h-10.663c.027 7.623 0 15.254.018 22.881.032 1.992.255 4.1 1.346 5.824.887 1.422 2.543 2.236 4.193 2.287-.022-2.836.051-5.674-.038-8.506 1.584.631 3.243 1.098 4.942 1.285 2.79.205 5.646-.74 7.756-2.578 2.247-1.922 3.613-4.748 3.955-7.666.291-2.527.016-5.156-1.011-7.499-1.036-2.385-3.062-4.338-5.515-5.227zm1.155 12.07c-.217 1.924-1.164 3.816-2.758 4.951-.916.678-2.059 1.031-3.193 1.037-1.768.018-3.531-.014-5.295.018-.016-4.818.045-9.643-.031-14.46 2.086.05 4.172-.012 6.258.025 1.47.073 2.773.99 3.609 2.161 1.297 1.789 1.663 4.108 1.41 6.268zm35.647-12.852c-2.782.051-5.669.752-7.854 2.549-2.162 1.734-3.383 4.432-3.661 7.15-.33 3.1.101 6.43 1.858 9.072 1.353 2.061 3.547 3.496 5.929 4.072 1.199.297 2.44.4 3.679.391h10.716s-.058-15.518 0-23.273c-3.554.056-7.108-.012-10.667.039zm5.104 18.854l-6.12-.02c-1.789-.033-3.311-1.326-4.14-2.84-1.037-1.887-1.29-4.16-.873-6.258.376-1.896 1.503-3.713 3.233-4.643.769-.435 1.646-.657 2.526-.675 1.797-.021 3.596.025 5.39-.021-.033 4.816-.006 9.635-.016 14.457z"/>
</svg>